{"title":"Ishk Actually 2013 Hindi WEBRip x264 MP3-MafiaKing","uid":9393013,"size":732729226,"categoryP":"video","categoryS":"movies","magnet":"?xt=urn:btih:df29a4fd96e479c1fdcdb94b5ebaf68fe0f22f83&amp;dn=Ishk+Actually+2013+Hindi+WEBRip+x264+MP3-MafiaKing&amp;tr=udp%3A%2F%2Ftracker.openbittorrent.com%3A80&amp;tr=udp%3A%2F%2Fopen.demonii.com%3A1337&amp;tr=udp%3A%2F%2Ftracker.coppersurfer.tk%3A6969&amp;tr=udp%3A%2F%2Fexodus.desync.com%3A6969","seeders":2,"leechers":0,"uploader":"HeroMaster","files":-1,"time":1387920429,"description":"::::::: MafiaKing PRESENTS ::::::::\n\n\n:::: Ishk Actually 2013 Hindi WEBRip x264 MP3-MafiaKing ::::\n\n\n::Information::\n\n\nGeneral\nFormat : Matroska\nFormat version : Version 4 / Version 2\nFile size : 691 MiB\nDuration : 1h 38mn\nOverall bit rate : 981 Kbps\nMovie name : Ishk Actually (2013) 1CD Web Rip Hindi x264 MP3 - Mafiaking\nEncoded date : UTC 2013-12-24 15:34:37\n\n\nVideo\nID : 1\nFormat : AVC\nFormat/Info : Advanced Video Codec\nFormat profile : &lt;a class=&quot;__cf_email__&quot; href=&quot;/cdn-cgi/l/email-protection&quot; data-cfemail=&quot;85cdece2edc5c9b7abb4&quot;&gt;[email&amp;#160;protected]&lt;/a&gt;&lt;script cf-hash='f9e31' type=&quot;text/javascript&quot;&gt;\n/* &lt;![CDATA[ */!function(){try{var t=&quot;currentScript&quot;in document?document.currentScript:function(){for(var t=document.getElementsByTagName(&quot;script&quot;),e=t.length;e--;)if(t[e].getAttribute(&quot;cf-hash&quot;))return t[e]}();if(t&amp;&amp;t.previousSibling){var e,r,n,i,c=t.previousSibling,a=c.getAttribute(&quot;data-cfemail&quot;);if(a){for(e=&quot;&quot;,r=parseInt(a.substr(0,2),16),n=2;a.length-n;n+=2)i=parseInt(a.substr(n,2),16)^r,e+=String.fromCharCode(i);e=document.createTextNode(e),c.parentNode.replaceChild(e,c)}}}catch(u){}}();/* ]]&gt; */&lt;/script&gt;\nFormat settings, CABAC : Yes\nFormat settings, ReFrames : 5 frames\nCodec ID : V_MPEG4/ISO/AVC\nDuration : 1h 38mn\nBit rate : 851 Kbps\nWidth : 640 pixels\nHeight : 272 pixels\nDisplay aspect ratio : 2.35:1\nFrame rate mode : Constant\nFrame rate : 25.000 fps\nColor space : YUV\nChroma subsampling : 4:2:0\nBit depth : 8 bits\nScan type : Progressive\nBits/(Pixel*Frame) : 0.196\nStream size : 587 MiB (85%)\nTitle : Mafiaking\n\n\nAudio\nID : 2\nFormat : MPEG Audio\nFormat version : Version 1\nFormat profile : Layer 3\nMode : Joint stereo\nMode extension : MS Stereo\nCodec ID : A_MPEG/L3\nCodec ID/Hint : MP3\nDuration : 1h 38mn\nBit rate mode : Constant\nBit rate : 128 Kbps\nChannel(s) : 2 channels\nSampling rate : 44.1 KHz\nCompression mode : Lossy\nStream size : 90.2 MiB (13%)\nTitle : Mafiaking\nWriting library : LAME3.99r\nEncoding settings : -m j -V 4 -q 2 -lowpass 17 -b 128\nLanguage : Hindi\nDefault : Yes\nForced : No\n\n\n::IMDB::\n\n &lt;a href=&quot;\nhttp://www.imdb.com/title/tt2706340/&quot; rel=&quot;nofollow&quot; target=&quot;_NEW&quot;&gt;\nhttp://www.imdb.com/title/tt2706340/&lt;/a&gt;\n\n\n::Greetz and Respect::\n\n\nALL CREDIT Goes to Team IcTv for Source &amp; MafiaKing for Encoding &amp; Distribution.\n\n\n::Poster::\n\n &lt;a href=&quot;\nhttp://i.imgur.com/MOj2m6x.jpg&quot; rel=&quot;nofollow&quot; target=&quot;_NEW&quot;&gt;\nhttp://i.imgur.com/MOj2m6x.jpg&lt;/a&gt;\n\n\n::Screenshots::\n\n &lt;a href=&quot;\nhttp://i.imgur.com/tkBC3DO.jpg&quot; rel=&quot;nofollow&quot; target=&quot;_NEW&quot;&gt;\nhttp://i.imgur.com/tkBC3DO.jpg&lt;/a&gt;\n\n &lt;a href=&quot;\nhttp://i.imgur.com/i9j6uDF.jpg&quot; rel=&quot;nofollow&quot; target=&quot;_NEW&quot;&gt;\nhttp://i.imgur.com/i9j6uDF.jpg&lt;/a&gt;\n\n &lt;a href=&quot;\nhttp://i.imgur.com/40By8IH.jpg&quot; rel=&quot;nofollow&quot; target=&quot;_NEW&quot;&gt;\nhttp://i.imgur.com/40By8IH.jpg&lt;/a&gt;\n\n\nSEED AND ENJOY!","torrent":{"xt":"urn:btih:df29a4fd96e479c1fdcdb94b5ebaf68fe0f22f83","amp;dn":"Ishk+Actually+2013+Hindi+WEBRip+x264+MP3-MafiaKing","amp;tr":["udp%3A%2F%2Ftracker.openbittorrent.com%3A80","udp%3A%2F%2Fopen.demonii.com%3A1337","udp%3A%2F%2Ftracker.coppersurfer.tk%3A6969","udp%3A%2F%2Fexodus.desync.com%3A6969"],"infoHash":"df29a4fd96e479c1fdcdb94b5ebaf68fe0f22f83","infoHashBuffer":{"type":"Buffer","data":[223,41,164,253,150,228,121,193,253,205,185,75,94,186,246,143,224,242,47,131]},"announce":[],"urlList":[]}}